<?xml version="1.0" encoding="UTF-8"?><svg id="Layer_1" xmlns="http://www.w3.org/2000/svg" viewBox="0 0 1080 1080"><defs><style>.cls-1{fill:#f9f9f9;}</style></defs><path class="cls-1" d="m582.13,486h74.87c17.73,0,32.1-14.37,32.1-32.1s-14.37-32.1-32.1-32.1h-74.87c-17.73,0-32.1,14.37-32.1,32.1s14.37,32.1,32.1,32.1Z"/><path class="cls-1" d="m519.32,544.22c-2.71-3.28-5.58-6.47-8.64-9.53l-103.48-103.48c-12.54-12.54-32.86-12.54-45.39,0-12.54,12.54-12.54,32.86,0,45.39l66.37,66.37c1.16,1.74,43.64,44.54,43.64,44.54,19.92,25.8,19.69,62.97-3.02,87.32-25.98,27.84-69.58,28.38-96.25,1.71l-51.96-51.96c-12.54-12.54-32.86-12.54-45.4,0-12.54,12.54-12.54,32.86,0,45.4l51.96,51.96c50.59,50.59,132.25,51.15,183.56,1.74,18.09-17.42,29.87-38.94,35.49-61.79l89.27,89.27c12.54,12.54,32.86,12.54,45.39,0,12.54-12.54,12.54-32.86,0-45.39l-161.54-161.54Z"/><path class="cls-1" d="m819.66,704.35l-126.07-126.07c57.47-13.15,100.52-64.04,101.71-125.19,1.36-73.5-60.17-133.64-133.68-133.64h-270.05c-1.19,0-2.35.07-3.51.2-35.03-1.84-70.66,10.31-97.81,36.44-52.94,50.97-51.94,137.03.03,188.99l103.48,103.48c12.54,12.54,32.86,12.54,45.39,0,12.54-12.54,12.54-32.86,0-45.39l-104.2-104.2c-25.66-25.66-27.54-67.48-2.78-94.02,25.98-27.84,69.58-28.38,96.25-1.71l51.96,51.96c12.54,12.54,32.86,12.54,45.4,0,12.54-12.54,12.54-32.86,0-45.4l-26.15-26.15h163.03c36.28,0,67.18,28.24,68.44,64.52,1.33,38.04-29.13,69.26-66.86,69.26h-73.47c-8.87,0-16.88,3.59-22.7,9.41-15.84,15.84-10.12,45.15,11.4,52.52,2.87.98,5.86,1.6,8.88,1.96,3.88.46,7.8.5,11.7.4,2.18-.06,4.83-.71,6.61.42.6.38,1.13,1.13,1.63,1.63,2.09,2.09,4.18,4.18,6.27,6.27,7.44,7.44,14.87,14.87,22.31,22.31,10.32,10.32,20.64,20.64,30.97,30.97,11.46,11.46,22.92,22.92,34.38,34.38,10.85,10.85,21.71,21.71,32.56,32.56,8.5,8.5,17,17,25.5,25.5,4.4,4.4,8.8,8.8,13.2,13.2l.78.78c12.54,12.54,32.86,12.54,45.39,0,12.54-12.54,12.54-32.86,0-45.39Z"/></svg>